<?xml version="1.0" encoding="UTF-8" standalone="no"?>
<!-- Generator: Adobe Illustrator 17.0.0, SVG Export Plug-In . SVG Version: 6.00 Build 0)  -->

<svg
   xmlns:dc="http://purl.org/dc/elements/1.1/"
   xmlns:cc="http://creativecommons.org/ns#"
   xmlns:rdf="http://www.w3.org/1999/02/22-rdf-syntax-ns#"
   xmlns:svg="http://www.w3.org/2000/svg"
   xmlns="http://www.w3.org/2000/svg"
   xmlns:sodipodi="http://sodipodi.sourceforge.net/DTD/sodipodi-0.dtd"
   xmlns:inkscape="http://www.inkscape.org/namespaces/inkscape"
   version="1.1"
   id="Layer_1"
   x="0px"
   y="0px"
   width="500"
   height="500"
   viewBox="0 0 499.99999 500"
   enable-background="new 0 0 56.693 56.693"
   xml:space="preserve"
   inkscape:version="0.91 r"
   sodipodi:docname="logo.svg"
   inkscape:export-filename="/mnt/depozit/proiecte/cunoastere/Logo/logo2.png"
   inkscape:export-xdpi="90"
   inkscape:export-ydpi="90"><metadata
     id="metadata15"><rdf:RDF><cc:Work
         rdf:about=""><dc:format>image/svg+xml</dc:format><dc:type
           rdf:resource="http://purl.org/dc/dcmitype/StillImage" /><dc:title></dc:title></cc:Work></rdf:RDF></metadata><defs
     id="defs13" /><sodipodi:namedview
     pagecolor="#ffffff"
     bordercolor="#666666"
     borderopacity="1"
     objecttolerance="10"
     gridtolerance="10"
     guidetolerance="10"
     inkscape:pageopacity="0"
     inkscape:pageshadow="2"
     inkscape:window-width="1920"
     inkscape:window-height="1025"
     id="namedview11"
     showgrid="false"
     inkscape:zoom="0.5203464"
     inkscape:cx="415.36832"
     inkscape:cy="-104.36628"
     inkscape:window-x="0"
     inkscape:window-y="39"
     inkscape:window-maximized="1"
     inkscape:current-layer="Layer_1"
     inkscape:showpageshadow="false" /><g
     id="g4015"
     transform="matrix(4.6713121,0,0,4.6713121,-1423.4401,-2964.6751)"
     inkscape:export-xdpi="90"
     inkscape:export-ydpi="90"><circle
       cx="352.52109"
       cy="686.31372"
       r="4.7775416"
       id="circle2994"
       style="fill:#474a56" /><circle
       cx="373.13226"
       cy="665.73364"
       r="3.2882102"
       id="circle2996"
       style="fill:#474a56" /><path
       inkscape:export-ydpi="90"
       inkscape:export-xdpi="90"
       inkscape:export-filename="/mnt/depozit/proiecte/cunoastere/Logo/cap-logo.png"
       d="m 398.20169,663.3371 c -2.79371,-19.32821 -29.17921,-23.70081 -33.91197,-23.70081 l -1.47376,-0.0136 c -8.14947,0 -34.90097,2.06754 -37.05418,28.68861 -0.39326,3.62891 -2.31089,13.93547 -6.37979,18.00436 -0.97731,0.97732 -3.00592,3.01176 -2.07922,5.28956 0.88386,2.1571 3.25317,2.18241 5.15717,2.20188 0.32318,0.004 0.94422,0.008 1.46208,0.0467 -0.19468,1.52632 -0.41273,2.3109 -0.57626,2.90274 -0.17133,0.59962 -0.34265,1.22067 -0.34265,2.07728 0,0.99483 0.37574,2.25249 2.02666,2.97866 -0.97536,1.5711 -0.82156,3.1714 0.45751,4.45242 0.44582,0.44583 0.67166,0.66971 0.67166,4.17792 0,5.1669 4.35702,7.86911 8.66343,7.86911 0.52175,0 1.04545,-0.0409 1.54968,-0.1207 l 0.49645,-0.074 c 1.16031,-0.18689 2.35956,-0.37574 3.45369,-0.37574 1.56526,0 2.47443,0.36601 3.14414,1.27713 0.59573,0.79431 1.20704,1.46402 1.69959,1.99551 1.73074,1.89622 2.9845,3.26679 2.9845,8.67511 0,4.07084 0.56848,5.7276 0.6814,6.01573 l 0.22194,0.586 c 0.10123,0.26672 0.35432,0.43414 0.62883,0.43414 0.0642,0 0.12849,-0.0117 0.18884,-0.0311 l 34.47461,-10.20339 c 0.31539,-0.0934 0.51981,-0.40299 0.47309,-0.72811 -0.87413,-6.87819 -0.0272,-18.28666 5.24284,-27.80864 1.33942,-2.4316 2.5192,-4.45437 3.59386,-6.30387 5.99431,-10.32213 6.91712,-11.90686 4.54586,-28.31287 z m -31.5894,24.64503 -2.78982,0.73785 c -0.0857,0.39521 -0.19079,0.77679 -0.31149,1.15642 l 2.04807,2.0325 c 0.63857,0.65219 1.07855,1.48933 0.61521,2.28753 -0.46335,0.79821 -1.34916,0.83131 -2.28754,0.60742 l -2.79761,-0.75732 c -0.26671,0.28813 -0.54316,0.57237 -0.83908,0.83325 l 0.76316,2.79955 c 0.22194,0.87802 0.18689,1.82613 -0.6152,2.28559 -0.80015,0.46334 -1.58084,0.0467 -2.2817,-0.61326 l -2.0325,-2.04807 c -0.37574,0.12071 -0.76121,0.22583 -1.15642,0.30955 l -0.73785,2.79371 c -0.24336,0.87218 -0.74759,1.67233 -1.66844,1.67233 -0.9228,0 -1.39783,-0.75537 -1.66844,-1.67233 l -0.7398,-2.79371 c -0.39521,-0.0837 -0.78068,-0.18884 -1.15642,-0.30955 l -2.03834,2.05197 c -0.6483,0.63272 -1.48155,1.0766 -2.28365,0.6113 -0.7982,-0.45945 -0.8313,-1.34721 -0.60936,-2.28559 l 0.76316,-2.7976 c -0.29397,-0.26477 -0.57237,-0.54706 -0.83908,-0.83714 l -2.79761,0.75732 c -0.88192,0.22778 -1.82419,0.19273 -2.28559,-0.60742 -0.4614,-0.7982 -0.0467,-1.58667 0.60936,-2.28753 l 2.05392,-2.0325 c -0.12265,-0.37769 -0.22778,-0.76121 -0.30955,-1.15642 l -2.79371,-0.73785 c -0.87608,-0.2453 -1.67039,-0.74759 -1.67039,-1.66844 0,-0.92865 0.75343,-1.39978 1.67039,-1.67428 l 2.79371,-0.73591 c 0.0818,-0.39131 0.1869,-0.77679 0.30955,-1.15447 l -2.05392,-2.0364 c -0.63272,-0.65219 -1.0727,-1.48349 -0.60936,-2.28559 0.45946,-0.7982 1.35111,-0.8313 2.28559,-0.6113 l 2.79761,0.76316 c 0.26671,-0.29592 0.54317,-0.57237 0.83908,-0.84104 l -0.76316,-2.79955 c -0.22388,-0.87997 -0.18884,-1.82419 0.60936,-2.2817 0.8021,-0.46334 1.58668,-0.0448 2.28754,0.60937 l 2.03445,2.05196 c 0.37768,-0.12265 0.76121,-0.22778 1.15642,-0.30954 l 0.7398,-2.79566 c 0.24335,-0.87413 0.74758,-1.67039 1.66844,-1.67039 0.9228,0 1.39588,0.75342 1.66844,1.67039 l 0.73785,2.79566 c 0.39521,0.0818 0.77874,0.18689 1.15642,0.30954 l 2.03639,-2.05196 c 0.65414,-0.63273 1.48155,-1.07466 2.2817,-0.60937 0.8021,0.45751 0.83519,1.34722 0.6152,2.2817 l -0.76316,2.80345 c 0.29397,0.26477 0.57237,0.54317 0.83909,0.83714 l 2.7976,-0.76316 c 0.88192,-0.21805 1.82419,-0.1869 2.28754,0.6113 0.4614,0.8021 0.0467,1.58473 -0.6152,2.28559 l -2.04808,2.0364 c 0.12071,0.37574 0.22584,0.76316 0.3115,1.15447 l 2.78982,0.73591 c 0.87413,0.24919 1.67233,0.74758 1.67233,1.67428 -0.002,0.9228 -0.75342,1.39393 -1.67623,1.66844 z m 16.85379,-20.57419 -2.75089,0.72422 c -0.14212,0.45751 -0.33096,0.89944 -0.55485,1.31801 l 1.43872,2.4647 c 0.43998,0.79236 0.65218,1.71516 0,2.3693 -0.65219,0.65025 -1.52048,0.45362 -2.3693,0 l -2.5017,-1.46013 c -0.40104,0.20831 -0.8235,0.37769 -1.26544,0.51786 l -0.7398,2.8054 c -0.24919,0.87607 -0.75342,1.67428 -1.67233,1.67428 -0.9228,0 -1.39783,-0.75343 -1.67039,-1.67428 l -0.76122,-2.8638 c -0.40494,-0.13628 -0.79819,-0.30371 -1.17588,-0.50423 l -2.57372,1.50296 c -0.79042,0.43998 -1.70933,0.65024 -2.35957,0 -0.65803,-0.65414 -0.45361,-1.52049 0,-2.36931 l 1.51659,-2.60876 c -0.18106,-0.36406 -0.3407,-0.73785 -0.46725,-1.12722 l -2.9222,-0.77095 c -0.87413,-0.2453 -1.67039,-0.74953 -1.67039,-1.67039 0,-0.92669 0.75343,-1.39783 1.67039,-1.67233 l 2.9261,-0.77095 c 0.12265,-0.39326 0.28424,-0.76511 0.46335,-1.12527 l -1.51659,-2.6146 c -0.44583,-0.79237 -0.65803,-1.70933 0,-2.36347 0.65024,-0.65413 1.51659,-0.4575 2.35957,0 L 369.443,658.69 c 0.38158,-0.19858 0.77094,-0.36796 1.17588,-0.50034 l 0.76122,-2.86964 c 0.2453,-0.87413 0.74953,-1.67039 1.67039,-1.67039 0.92085,0 1.39588,0.74953 1.67233,1.67039 l 0.7398,2.80734 c 0.44194,0.13628 0.86245,0.31149 1.2635,0.51981 l 2.50364,-1.45819 c 0.7943,-0.44582 1.71711,-0.65413 2.3693,0 0.65218,0.65414 0.45361,1.51854 0,2.36347 l -1.43872,2.46664 c 0.22,0.41857 0.41273,0.85856 0.55485,1.31606 l 2.75089,0.72812 c 0.87413,0.2453 1.67038,0.74759 1.67038,1.67039 0,0.9228 -0.75342,1.39783 -1.67038,1.67428 z"
       id="path2998"
       inkscape:connector-curvature="0"
       style="fill:#ff6558;fill-opacity:1" /></g></svg>